HIERARCHY
ROOT COM
{
  OFFSET 0.000000 0.000000 0.000000
  CHANNELS 6 Xposition Yposition Zposition Zrotation Xrotation Yrotation
  JOINT Spine
  {
    OFFSET 0.000000 10.031300 -3.647750
    CHANNELS 3 Zrotation Xrotation Yrotation
    JOINT Spine1
    {
      OFFSET 0.000000 14.268000 -0.012359
      CHANNELS 3 Zrotation Xrotation Yrotation
      JOINT Spine2
      {
        OFFSET 0.000000 15.553400 -0.011802
        CHANNELS 3 Zrotation Xrotation Yrotation
        JOINT Neck
        {
          OFFSET 0.000000 15.343700 -0.005077
          CHANNELS 3 Zrotation Xrotation Yrotation
          JOINT Head
          {
            OFFSET 0.000000 6.594300 0.000000
            CHANNELS 3 Zrotation Xrotation Yrotation
            End Site
            {
              OFFSET 0.000000 0.000000 0.000000
            }
          }
          JOINT Leftcollar
          {
            OFFSET 4.254290 -1.548100 1.990670
            CHANNELS 3 Zrotation Xrotation Yrotation
            JOINT LeftArm
            {
              OFFSET 16.825900 0.000000 0.000000
              CHANNELS 3 Zrotation Xrotation Yrotation
              JOINT LeftForeArm
              {
                OFFSET 0.000000 -28.058000 0.000000
                CHANNELS 3 Zrotation Xrotation Yrotation
                JOINT LeftHand
                {
                  OFFSET 0.000000 -24.725300 0.000000
                  CHANNELS 3 Zrotation Xrotation Yrotation
                  End Site
                  {
                    OFFSET -2.986150 -9.946190 -0.575321
                  }
                }
              }
            }
          }
          JOINT RightCollar
          {
            OFFSET -4.254280 -1.548090 1.990690
            CHANNELS 3 Zrotation Xrotation Yrotation
            JOINT RightArm
            {
              OFFSET -16.825900 0.000000 0.000000
              CHANNELS 3 Zrotation Xrotation Yrotation
              JOINT RightForeArm
              {
                OFFSET 0.000000 -28.058000 0.000000
                CHANNELS 3 Zrotation Xrotation Yrotation
                JOINT RightHand
                {
                  OFFSET 0.000000 -24.725300 0.000000
                  CHANNELS 3 Zrotation Xrotation Yrotation
                  End Site
                  {
                    OFFSET 2.986150 -9.946180 -0.575319
                  }
                }
              }
            }
          }
        }
      }
    }
  }
  JOINT LeftUpLeg
  {
    OFFSET 9.942750 0.000000 0.000000
    CHANNELS 3 Zrotation Xrotation Yrotation
    JOINT LeftLeg
    {
      OFFSET 0.000000 -45.973000 0.000000
      CHANNELS 3 Zrotation Xrotation Yrotation
      JOINT LeftFoot
      {
        OFFSET 0.000000 -43.163400 0.000000
        CHANNELS 3 Zrotation Xrotation Yrotation
        JOINT LeftToe
        {
          OFFSET 0.000000 0.000000 15.628600
          CHANNELS 3 Zrotation Xrotation Yrotation
          End Site
          {
            OFFSET 0.000000 0.000000 0.000000
          }
        }
      }
    }
  }
  JOINT RightUpLeg
  {
    OFFSET -9.942750 0.000000 0.000000
    CHANNELS 3 Zrotation Xrotation Yrotation
    JOINT RightLeg
    {
      OFFSET 0.000000 -45.973000 0.000000
      CHANNELS 3 Zrotation Xrotation Yrotation
      JOINT RightFoot
      {
        OFFSET 0.000000 -43.163400 0.000000
        CHANNELS 3 Zrotation Xrotation Yrotation
        JOINT RightToe
        {
          OFFSET 0.000000 0.000000 15.628600
          CHANNELS 3 Zrotation Xrotation Yrotation
          End Site
          {
            OFFSET 0.000000 0.000000 0.000000
          }
        }
      }
    }
  }
}
MOTION
Frames: 5
Frame Time: 0.033333
41.551000 90.083900 13.664900 8.664310 2.941540 226.785000 5.201060 356.965260 0.000000 360.000000 360.000000 357.791090 0.000000 0.000000 0.000000 0.000000 0.000000 0.000000 0.000000 0.000000 0.000000 0.000000 0.000000 0.000000 20.118100 345.656700 345.890100 0.000000 317.764500 0.000000 360.000000 360.000000 90.000000 0.000000 0.000000 0.000000 335.372900 20.828300 42.779100 0.000000 341.177900 360.000000 360.000000 0.000000 270.000000 6.441230 8.699980 14.578500 360.000000 23.555600 360.000000 0.000000 0.010210 336.457600 0.000000 0.000000 360.000000 3.258060 344.269700 329.887500 0.000000 359.514702 360.000000 0.000002 36.381500 41.478900 360.000000 360.000000 0.000000 
39.528100 90.552300 10.926300 8.463150 5.049020 228.604000 6.795750 357.582580 360.000000 360.000000 0.000000 359.425341 360.000000 0.000000 0.000000 360.000000 360.000000 0.000000 0.000000 0.000000 0.000000 0.000000 0.000000 0.000000 18.573200 348.734400 345.385200 0.000000 322.734600 0.000000 360.000000 0.000000 90.000000 0.000000 0.000000 0.000000 334.009100 18.231100 44.813200 360.000000 339.631400 0.000000 360.000000 0.000000 270.000000 9.428460 8.758860 13.337100 0.000000 29.198500 360.000000 360.000000 4.746950 336.235000 0.000000 0.000000 0.000000 4.334520 347.612700 329.257800 0.000000 1.219270 360.000000 0.000003 32.263200 40.277200 0.000000 0.000000 0.000000 
37.740400 91.063400 8.609170 8.074320 5.753510 231.624000 6.923950 357.712800 0.000000 360.000000 360.000000 0.305705 360.000000 360.000000 0.000000 360.000000 360.000000 0.000000 360.000000 360.000000 0.000000 360.000000 360.000000 0.000000 17.381000 351.525640 345.524100 360.000000 328.112000 360.000000 0.000000 360.000000 90.000000 360.000000 360.000000 0.000000 332.715100 14.802300 45.226200 360.000000 337.839600 0.000000 360.000000 0.000000 270.000000 11.533900 5.503770 11.565800 360.000000 37.716500 0.000000 360.000000 11.769600 337.030800 360.000000 0.000000 0.000000 4.372250 350.215660 325.906700 360.000000 1.888230 360.000000 0.000000 29.614700 40.664400 360.000000 0.000000 360.000000 
35.951700 91.468500 6.624800 7.034890 5.994410 234.964000 6.304140 358.344410 0.000000 0.000000 360.000000 1.325980 0.000000 0.000000 0.000000 0.000000 0.000000 0.000000 0.000000 0.000000 0.000000 0.000000 0.000000 0.000000 16.642200 354.378280 346.054100 360.000000 332.998100 0.000000 0.000000 0.000000 90.000000 0.000000 0.000000 0.000000 330.921100 11.187400 44.459900 0.000000 335.643000 0.000000 0.000000 360.000000 270.000000 12.279500 1.413480 9.960270 360.000000 47.045600 0.000000 360.000000 18.037600 341.032200 0.000000 0.000000 360.000000 3.755460 353.080690 320.338600 360.000000 1.988350 360.000000 359.999999 28.413200 43.261000 360.000000 360.000000 0.000000 
34.269700 91.706600 4.839680 5.879160 6.469630 238.273000 5.878740 359.430742 0.000000 360.000000 360.000000 2.636630 0.000000 0.000000 0.000000 0.000000 0.000000 0.000000 0.000000 0.000000 0.000000 0.000000 0.000000 0.000000 16.274500 356.750640 346.939800 360.000000 337.815700 0.000000 0.000000 0.000000 90.000000 0.000000 0.000000 0.000000 329.037800 7.107140 42.139500 0.000000 334.229700 0.000000 360.000000 360.000000 270.000000 13.245800 357.030790 10.349000 360.000000 55.894400 0.000000 0.000000 22.644800 347.617900 0.000000 360.000000 360.000000 3.740460 356.185490 317.493900 0.000000 1.745850 0.000000 360.000000 26.209100 43.056400 0.000000 0.000000 0.000000 
